<svg width="22" height="24" viewBox="0 0 22 24" fill="none" xmlns="http://www.w3.org/2000/svg">
<path d="M8.17973 19.8611C3.05153 21.4306 3.05153 17.2454 1.00024 16.7223M15.3592 23V18.9509C15.3977 18.452 15.3316 17.9504 15.1654 17.4796C14.9992 17.0087 14.7366 16.5794 14.3951 16.2201C17.6156 15.8539 21.0002 14.6088 21.0002 8.89609C21 7.4353 20.4492 6.03053 19.4618 4.97252C19.9293 3.6945 19.8963 2.28185 19.3695 1.02803C19.3695 1.02803 18.1592 0.661834 15.3592 2.57653C13.0085 1.9266 10.5305 1.9266 8.17973 2.57653C5.37973 0.661834 4.16948 1.02803 4.16948 1.02803C3.64268 2.28185 3.60962 3.6945 4.07717 4.97252C3.08243 6.03837 2.53104 7.45584 2.53871 8.92748C2.53871 14.5983 5.92332 15.8434 9.14383 16.2515C8.8064 16.6072 8.54616 17.0314 8.38005 17.4965C8.21394 17.9616 8.14569 18.4571 8.17973 18.9509V23" stroke="#FF014F" stroke-width="2" stroke-linecap="round" stroke-linejoin="round"/>
</svg>
